<?xml version="1.0" encoding="UTF-8"?>
<svg xmlns="http://www.w3.org/2000/svg" xmlns:xlink="http://www.w3.org/1999/xlink" width="4000" height="4000" viewBox="0 0 4000 4000">
<defs>
<clipPath id="clip-0">

</clipPath>
<clipPath id="clip-1">
<path clip-rule="nonzero" d="M 3126.039062 3072.828125 C 3051.800781 3165.628906 2891.550781 2985.710938 2833.378906 2939.019531 C 2723.308594 2939.019531 2613.230469 2939.019531 2503.148438 2939.019531 C 2435.78125 2939.019531 2368.398438 2939.019531 2301.03125 2939.019531 C 2256.96875 2939.019531 2203.851562 2947.628906 2173.359375 2908.109375 C 2056.28125 2756.359375 2384.011719 2782.519531 2439.539062 2782.519531 C 2553.871094 2782.519531 2668.191406 2782.519531 2782.519531 2782.519531 C 2782.519531 2668.191406 2782.519531 2553.871094 2782.519531 2439.539062 C 2782.519531 2379.398438 2750.320312 2079.558594 2900.179688 2167.230469 C 2946.300781 2194.210938 2939.019531 2247.109375 2939.019531 2292.039062 C 2939.019531 2358.148438 2939.019531 2424.261719 2939.019531 2490.371094 C 2939.019531 2601.308594 2939.019531 2712.261719 2939.019531 2823.210938 C 2996.46875 2869.070312 3199.171875 2980.339844 3126.039062 3072.828125 Z M 2302.050781 2078.25 C 2273.101562 2187.808594 2187.808594 2273.101562 2078.25 2302.050781 L 2078.25 3719.191406 C 2965.628906 3679.28125 3679.28125 2965.628906 3719.191406 2078.25 Z M 2302.050781 2078.25 "/>
</clipPath>
<clipPath id="clip-2">
<path clip-rule="nonzero" d="M 3126.039062 3072.828125 C 3051.800781 3165.628906 2891.550781 2985.710938 2833.378906 2939.019531 C 2723.308594 2939.019531 2613.230469 2939.019531 2503.148438 2939.019531 C 2435.78125 2939.019531 2368.398438 2939.019531 2301.03125 2939.019531 C 2256.96875 2939.019531 2203.851562 2947.628906 2173.359375 2908.109375 C 2056.28125 2756.359375 2384.011719 2782.519531 2439.539062 2782.519531 C 2553.871094 2782.519531 2668.191406 2782.519531 2782.519531 2782.519531 C 2782.519531 2668.191406 2782.519531 2553.871094 2782.519531 2439.539062 C 2782.519531 2379.398438 2750.320312 2079.558594 2900.179688 2167.230469 C 2946.300781 2194.210938 2939.019531 2247.109375 2939.019531 2292.039062 C 2939.019531 2358.148438 2939.019531 2424.261719 2939.019531 2490.371094 C 2939.019531 2601.308594 2939.019531 2712.261719 2939.019531 2823.210938 C 2996.46875 2869.070312 3199.171875 2980.339844 3126.039062 3072.828125 Z M 2302.050781 2078.25 C 2273.101562 2187.808594 2187.808594 2273.101562 2078.25 2302.050781 L 2078.25 3719.191406 C 2965.628906 3679.28125 3679.28125 2965.628906 3719.191406 2078.25 L 2302.050781 2078.25 "/>
</clipPath>
<linearGradient id="linear-pattern-0" gradientUnits="userSpaceOnUse" x1="0.271115" y1="0" x2="0.736737" y2="0" gradientTransform="matrix(3521.33, -3573.49, 3573.49, 3521.33, 921.613, 4510.66)">
<stop offset="0" stop-color="rgb(0%, 66.697693%, 78.938293%)" stop-opacity="1"/>
<stop offset="0.015625" stop-color="rgb(0%, 66.78772%, 78.839111%)" stop-opacity="1"/>
<stop offset="0.03125" stop-color="rgb(0%, 66.966248%, 78.642273%)" stop-opacity="1"/>
<stop offset="0.046875" stop-color="rgb(0%, 67.146301%, 78.445435%)" stop-opacity="1"/>
<stop offset="0.0625" stop-color="rgb(0%, 67.326355%, 78.248596%)" stop-opacity="1"/>
<stop offset="0.078125" stop-color="rgb(0%, 67.506409%, 78.051758%)" stop-opacity="1"/>
<stop offset="0.09375" stop-color="rgb(0%, 67.686462%, 77.854919%)" stop-opacity="1"/>
<stop offset="0.109375" stop-color="rgb(0%, 67.86499%, 77.658081%)" stop-opacity="1"/>
<stop offset="0.125" stop-color="rgb(0%, 68.045044%, 77.461243%)" stop-opacity="1"/>
<stop offset="0.140625" stop-color="rgb(0%, 68.225098%, 77.262878%)" stop-opacity="1"/>
<stop offset="0.15625" stop-color="rgb(0%, 68.405151%, 77.06604%)" stop-opacity="1"/>
<stop offset="0.171875" stop-color="rgb(0%, 68.585205%, 76.869202%)" stop-opacity="1"/>
<stop offset="0.1875" stop-color="rgb(0%, 68.763733%, 76.672363%)" stop-opacity="1"/>
<stop offset="0.203125" stop-color="rgb(0%, 68.943787%, 76.475525%)" stop-opacity="1"/>
<stop offset="0.21875" stop-color="rgb(0%, 69.12384%, 76.278687%)" stop-opacity="1"/>
<stop offset="0.234375" stop-color="rgb(0%, 69.303894%, 76.081848%)" stop-opacity="1"/>
<stop offset="0.25" stop-color="rgb(0%, 69.483948%, 75.88501%)" stop-opacity="1"/>
<stop offset="0.265625" stop-color="rgb(0%, 69.662476%, 75.688171%)" stop-opacity="1"/>
<stop offset="0.28125" stop-color="rgb(0%, 69.842529%, 75.491333%)" stop-opacity="1"/>
<stop offset="0.296875" stop-color="rgb(0%, 70.022583%, 75.294495%)" stop-opacity="1"/>
<stop offset="0.3125" stop-color="rgb(0%, 70.202637%, 75.097656%)" stop-opacity="1"/>
<stop offset="0.328125" stop-color="rgb(0%, 70.38269%, 74.900818%)" stop-opacity="1"/>
<stop offset="0.34375" stop-color="rgb(0%, 70.561218%, 74.703979%)" stop-opacity="1"/>
<stop offset="0.359375" stop-color="rgb(0%, 70.741272%, 74.507141%)" stop-opacity="1"/>
<stop offset="0.375" stop-color="rgb(0%, 70.921326%, 74.310303%)" stop-opacity="1"/>
<stop offset="0.390625" stop-color="rgb(0%, 71.101379%, 74.113464%)" stop-opacity="1"/>
<stop offset="0.40625" stop-color="rgb(0%, 71.281433%, 73.916626%)" stop-opacity="1"/>
<stop offset="0.421875" stop-color="rgb(0%, 71.459961%, 73.719788%)" stop-opacity="1"/>
<stop offset="0.4375" stop-color="rgb(0%, 71.640015%, 73.522949%)" stop-opacity="1"/>
<stop offset="0.453125" stop-color="rgb(0%, 71.820068%, 73.326111%)" stop-opacity="1"/>
<stop offset="0.46875" stop-color="rgb(0%, 72.000122%, 73.129272%)" stop-opacity="1"/>
<stop offset="0.484375" stop-color="rgb(0%, 72.180176%, 72.932434%)" stop-opacity="1"/>
<stop offset="0.5" stop-color="rgb(0%, 72.358704%, 72.735596%)" stop-opacity="1"/>
<stop offset="0.515625" stop-color="rgb(0%, 72.538757%, 72.538757%)" stop-opacity="1"/>
<stop offset="0.53125" stop-color="rgb(0%, 72.718811%, 72.341919%)" stop-opacity="1"/>
<stop offset="0.546875" stop-color="rgb(0%, 72.898865%, 72.145081%)" stop-opacity="1"/>
<stop offset="0.5625" stop-color="rgb(0%, 73.077393%, 71.948242%)" stop-opacity="1"/>
<stop offset="0.578125" stop-color="rgb(0%, 73.257446%, 71.751404%)" stop-opacity="1"/>
<stop offset="0.59375" stop-color="rgb(0%, 73.4375%, 71.554565%)" stop-opacity="1"/>
<stop offset="0.609375" stop-color="rgb(0%, 73.617554%, 71.357727%)" stop-opacity="1"/>
<stop offset="0.625" stop-color="rgb(0%, 73.797607%, 71.160889%)" stop-opacity="1"/>
<stop offset="0.640625" stop-color="rgb(0%, 73.976135%, 70.96405%)" stop-opacity="1"/>
<stop offset="0.65625" stop-color="rgb(0%, 74.156189%, 70.767212%)" stop-opacity="1"/>
<stop offset="0.671875" stop-color="rgb(0%, 74.336243%, 70.570374%)" stop-opacity="1"/>
<stop offset="0.6875" stop-color="rgb(0%, 74.516296%, 70.373535%)" stop-opacity="1"/>
<stop offset="0.703125" stop-color="rgb(0%, 74.69635%, 70.176697%)" stop-opacity="1"/>
<stop offset="0.71875" stop-color="rgb(0%, 74.874878%, 69.979858%)" stop-opacity="1"/>
<stop offset="0.734375" stop-color="rgb(0%, 75.054932%, 69.78302%)" stop-opacity="1"/>
<stop offset="0.75" stop-color="rgb(0%, 75.234985%, 69.586182%)" stop-opacity="1"/>
<stop offset="0.765625" stop-color="rgb(0%, 75.415039%, 69.389343%)" stop-opacity="1"/>
<stop offset="0.78125" stop-color="rgb(0%, 75.595093%, 69.192505%)" stop-opacity="1"/>
<stop offset="0.796875" stop-color="rgb(0%, 75.773621%, 68.995667%)" stop-opacity="1"/>
<stop offset="0.8125" stop-color="rgb(0%, 75.953674%, 68.798828%)" stop-opacity="1"/>
<stop offset="0.828125" stop-color="rgb(0%, 76.133728%, 68.60199%)" stop-opacity="1"/>
<stop offset="0.84375" stop-color="rgb(0%, 76.313782%, 68.405151%)" stop-opacity="1"/>
<stop offset="0.859375" stop-color="rgb(0%, 76.493835%, 68.208313%)" stop-opacity="1"/>
<stop offset="0.875" stop-color="rgb(0%, 76.672363%, 68.011475%)" stop-opacity="1"/>
<stop offset="0.890625" stop-color="rgb(0%, 76.852417%, 67.814636%)" stop-opacity="1"/>
<stop offset="0.90625" stop-color="rgb(0%, 77.032471%, 67.617798%)" stop-opacity="1"/>
<stop offset="0.921875" stop-color="rgb(0%, 77.212524%, 67.420959%)" stop-opacity="1"/>
<stop offset="0.9375" stop-color="rgb(0%, 77.392578%, 67.224121%)" stop-opacity="1"/>
<stop offset="0.953125" stop-color="rgb(0%, 77.571106%, 67.027283%)" stop-opacity="1"/>
<stop offset="0.96875" stop-color="rgb(0%, 77.75116%, 66.830444%)" stop-opacity="1"/>
<stop offset="0.984375" stop-color="rgb(0%, 77.931213%, 66.633606%)" stop-opacity="1"/>
<stop offset="1" stop-color="rgb(0%, 78.111267%, 66.436768%)" stop-opacity="1"/>
</linearGradient>
<clipPath id="clip-3">
<path clip-rule="nonzero" d="M 2078 280 L 3720 280 L 3720 1922 L 2078 1922 Z M 2078 280 "/>
</clipPath>
<clipPath id="clip-4">
<path clip-rule="nonzero" d="M 3113.519531 1037.511719 L 2939.019531 1176.789062 C 2939.019531 1287.738281 2939.019531 1398.691406 2939.019531 1509.628906 C 2939.019531 1575.738281 2939.019531 1641.851562 2939.019531 1707.960938 C 2939.019531 1752.890625 2946.28125 1805.808594 2900.179688 1832.769531 C 2750.359375 1920.421875 2782.519531 1620.851562 2782.519531 1560.460938 C 2782.519531 1446.128906 2782.519531 1331.808594 2782.519531 1217.480469 C 2668.191406 1217.480469 2553.871094 1217.480469 2439.539062 1217.480469 C 2383.578125 1217.480469 2056.378906 1243.511719 2173.359375 1091.890625 C 2203.851562 1052.371094 2256.96875 1060.980469 2301.03125 1060.980469 C 2368.398438 1060.980469 2435.78125 1060.980469 2503.148438 1060.980469 C 2613.230469 1060.980469 2723.308594 1060.980469 2833.378906 1060.980469 C 2885.328125 1019.289062 2936.640625 976.660156 2989.28125 935.859375 C 3014.640625 916.199219 3037.851562 894.351562 3073.21875 898.308594 C 3140.96875 905.898438 3166.199219 994.621094 3113.519531 1037.511719 Z M 2078.25 280.808594 L 2078.25 1697.949219 C 2187.808594 1726.898438 2273.101562 1812.191406 2302.050781 1921.75 L 3719.191406 1921.75 C 3679.28125 1034.371094 2965.628906 320.71875 2078.25 280.808594 Z M 2078.25 280.808594 "/>
</clipPath>
<clipPath id="clip-5">
<path clip-rule="nonzero" d="M 3113.519531 1037.511719 L 2939.019531 1176.789062 C 2939.019531 1287.738281 2939.019531 1398.691406 2939.019531 1509.628906 C 2939.019531 1575.738281 2939.019531 1641.851562 2939.019531 1707.960938 C 2939.019531 1752.890625 2946.28125 1805.808594 2900.179688 1832.769531 C 2750.359375 1920.421875 2782.519531 1620.851562 2782.519531 1560.460938 C 2782.519531 1446.128906 2782.519531 1331.808594 2782.519531 1217.480469 C 2668.191406 1217.480469 2553.871094 1217.480469 2439.539062 1217.480469 C 2383.578125 1217.480469 2056.378906 1243.511719 2173.359375 1091.890625 C 2203.851562 1052.371094 2256.96875 1060.980469 2301.03125 1060.980469 C 2368.398438 1060.980469 2435.78125 1060.980469 2503.148438 1060.980469 C 2613.230469 1060.980469 2723.308594 1060.980469 2833.378906 1060.980469 C 2885.328125 1019.289062 2936.640625 976.660156 2989.28125 935.859375 C 3014.640625 916.199219 3037.851562 894.351562 3073.21875 898.308594 C 3140.96875 905.898438 3166.199219 994.621094 3113.519531 1037.511719 Z M 2078.25 280.808594 L 2078.25 1697.949219 C 2187.808594 1726.898438 2273.101562 1812.191406 2302.050781 1921.75 L 3719.191406 1921.75 C 3679.28125 1034.371094 2965.628906 320.71875 2078.25 280.808594 "/>
</clipPath>
<linearGradient id="linear-pattern-1" gradientUnits="userSpaceOnUse" x1="0.526322" y1="0" x2="0.991931" y2="0" gradientTransform="matrix(3521.33, -3573.49, 3573.49, 3521.33, 220.198, 3819.48)">
<stop offset="0" stop-color="rgb(0%, 73.002625%, 72.032166%)" stop-opacity="1"/>
<stop offset="0.015625" stop-color="rgb(0%, 73.092651%, 71.932983%)" stop-opacity="1"/>
<stop offset="0.03125" stop-color="rgb(0%, 73.272705%, 71.736145%)" stop-opacity="1"/>
<stop offset="0.046875" stop-color="rgb(0%, 73.451233%, 71.539307%)" stop-opacity="1"/>
<stop offset="0.0625" stop-color="rgb(0%, 73.631287%, 71.342468%)" stop-opacity="1"/>
<stop offset="0.078125" stop-color="rgb(0%, 73.81134%, 71.14563%)" stop-opacity="1"/>
<stop offset="0.09375" stop-color="rgb(0%, 73.991394%, 70.948792%)" stop-opacity="1"/>
<stop offset="0.109375" stop-color="rgb(0%, 74.169922%, 70.751953%)" stop-opacity="1"/>
<stop offset="0.125" stop-color="rgb(0%, 74.349976%, 70.555115%)" stop-opacity="1"/>
<stop offset="0.140625" stop-color="rgb(0%, 74.530029%, 70.358276%)" stop-opacity="1"/>
<stop offset="0.15625" stop-color="rgb(0%, 74.710083%, 70.161438%)" stop-opacity="1"/>
<stop offset="0.171875" stop-color="rgb(0%, 74.890137%, 69.9646%)" stop-opacity="1"/>
<stop offset="0.1875" stop-color="rgb(0%, 75.068665%, 69.767761%)" stop-opacity="1"/>
<stop offset="0.203125" stop-color="rgb(0%, 75.248718%, 69.570923%)" stop-opacity="1"/>
<stop offset="0.21875" stop-color="rgb(0%, 75.428772%, 69.374084%)" stop-opacity="1"/>
<stop offset="0.234375" stop-color="rgb(0%, 75.608826%, 69.177246%)" stop-opacity="1"/>
<stop offset="0.25" stop-color="rgb(0%, 75.788879%, 68.980408%)" stop-opacity="1"/>
<stop offset="0.265625" stop-color="rgb(0%, 75.967407%, 68.783569%)" stop-opacity="1"/>
<stop offset="0.28125" stop-color="rgb(0%, 76.147461%, 68.586731%)" stop-opacity="1"/>
<stop offset="0.296875" stop-color="rgb(0%, 76.327515%, 68.389893%)" stop-opacity="1"/>
<stop offset="0.3125" stop-color="rgb(0%, 76.507568%, 68.193054%)" stop-opacity="1"/>
<stop offset="0.328125" stop-color="rgb(0%, 76.687622%, 67.996216%)" stop-opacity="1"/>
<stop offset="0.34375" stop-color="rgb(0%, 76.86615%, 67.799377%)" stop-opacity="1"/>
<stop offset="0.359375" stop-color="rgb(0%, 77.046204%, 67.602539%)" stop-opacity="1"/>
<stop offset="0.375" stop-color="rgb(0%, 77.226257%, 67.405701%)" stop-opacity="1"/>
<stop offset="0.390625" stop-color="rgb(0%, 77.406311%, 67.208862%)" stop-opacity="1"/>
<stop offset="0.40625" stop-color="rgb(0%, 77.586365%, 67.012024%)" stop-opacity="1"/>
<stop offset="0.421875" stop-color="rgb(0%, 77.764893%, 66.815186%)" stop-opacity="1"/>
<stop offset="0.4375" stop-color="rgb(0%, 77.944946%, 66.618347%)" stop-opacity="1"/>
<stop offset="0.453125" stop-color="rgb(0%, 78.125%, 66.421509%)" stop-opacity="1"/>
<stop offset="0.46875" stop-color="rgb(0%, 78.305054%, 66.22467%)" stop-opacity="1"/>
<stop offset="0.484375" stop-color="rgb(0%, 78.485107%, 66.027832%)" stop-opacity="1"/>
<stop offset="0.5" stop-color="rgb(0%, 78.663635%, 65.830994%)" stop-opacity="1"/>
<stop offset="0.515625" stop-color="rgb(0%, 78.843689%, 65.634155%)" stop-opacity="1"/>
<stop offset="0.53125" stop-color="rgb(0%, 79.023743%, 65.437317%)" stop-opacity="1"/>
<stop offset="0.546875" stop-color="rgb(0%, 79.203796%, 65.240479%)" stop-opacity="1"/>
<stop offset="0.5625" stop-color="rgb(0%, 79.382324%, 65.04364%)" stop-opacity="1"/>
<stop offset="0.578125" stop-color="rgb(0%, 79.562378%, 64.846802%)" stop-opacity="1"/>
<stop offset="0.59375" stop-color="rgb(0%, 79.742432%, 64.649963%)" stop-opacity="1"/>
<stop offset="0.609375" stop-color="rgb(0%, 79.922485%, 64.451599%)" stop-opacity="1"/>
<stop offset="0.625" stop-color="rgb(0%, 80.102539%, 64.254761%)" stop-opacity="1"/>
<stop offset="0.640625" stop-color="rgb(0%, 80.281067%, 64.057922%)" stop-opacity="1"/>
<stop offset="0.65625" stop-color="rgb(0%, 80.461121%, 63.861084%)" stop-opacity="1"/>
<stop offset="0.671875" stop-color="rgb(0%, 80.641174%, 63.664246%)" stop-opacity="1"/>
<stop offset="0.6875" stop-color="rgb(0%, 80.821228%, 63.467407%)" stop-opacity="1"/>
<stop offset="0.703125" stop-color="rgb(0%, 81.001282%, 63.270569%)" stop-opacity="1"/>
<stop offset="0.71875" stop-color="rgb(0%, 81.17981%, 63.07373%)" stop-opacity="1"/>
<stop offset="0.734375" stop-color="rgb(0%, 81.359863%, 62.876892%)" stop-opacity="1"/>
<stop offset="0.75" stop-color="rgb(0%, 81.539917%, 62.680054%)" stop-opacity="1"/>
<stop offset="0.765625" stop-color="rgb(0%, 81.719971%, 62.483215%)" stop-opacity="1"/>
<stop offset="0.78125" stop-color="rgb(0%, 81.900024%, 62.286377%)" stop-opacity="1"/>
<stop offset="0.796875" stop-color="rgb(0%, 82.078552%, 62.089539%)" stop-opacity="1"/>
<stop offset="0.8125" stop-color="rgb(0%, 82.258606%, 61.8927%)" stop-opacity="1"/>
<stop offset="0.828125" stop-color="rgb(0%, 82.43866%, 61.695862%)" stop-opacity="1"/>
<stop offset="0.84375" stop-color="rgb(0%, 82.618713%, 61.499023%)" stop-opacity="1"/>
<stop offset="0.859375" stop-color="rgb(0%, 82.798767%, 61.302185%)" stop-opacity="1"/>
<stop offset="0.875" stop-color="rgb(0%, 82.977295%, 61.105347%)" stop-opacity="1"/>
<stop offset="0.890625" stop-color="rgb(0%, 83.157349%, 60.908508%)" stop-opacity="1"/>
<stop offset="0.90625" stop-color="rgb(0%, 83.337402%, 60.71167%)" stop-opacity="1"/>
<stop offset="0.921875" stop-color="rgb(0%, 83.517456%, 60.514832%)" stop-opacity="1"/>
<stop offset="0.9375" stop-color="rgb(0%, 83.69751%, 60.317993%)" stop-opacity="1"/>
<stop offset="0.953125" stop-color="rgb(0%, 83.876038%, 60.121155%)" stop-opacity="1"/>
<stop offset="0.96875" stop-color="rgb(0%, 84.056091%, 59.924316%)" stop-opacity="1"/>
<stop offset="0.984375" stop-color="rgb(0%, 84.236145%, 59.727478%)" stop-opacity="1"/>
<stop offset="1" stop-color="rgb(0%, 84.416199%, 59.53064%)" stop-opacity="1"/>
</linearGradient>
<clipPath id="clip-6">
<path clip-rule="nonzero" d="M 280 2078 L 1922 2078 L 1922 3720 L 280 3720 Z M 280 2078 "/>
</clipPath>
<clipPath id="clip-7">
<path clip-rule="nonzero" d="M 1765.238281 2939.019531 L 1176.789062 2939.019531 C 1132.488281 2994.519531 996.765625 3227.941406 912.710938 3110.699219 C 854.234375 3029.128906 1014.5 2891.300781 1060.980469 2833.378906 C 1060.980469 2723.308594 1060.980469 2613.230469 1060.980469 2503.148438 C 1060.980469 2435.78125 1060.980469 2368.398438 1060.980469 2301.03125 C 1060.980469 2256.96875 1052.371094 2203.851562 1091.890625 2173.359375 C 1243.640625 2056.28125 1217.480469 2384.011719 1217.480469 2439.539062 C 1217.480469 2553.871094 1217.480469 2668.191406 1217.480469 2782.519531 C 1339.238281 2782.519531 1461 2782.519531 1582.761719 2782.519531 C 1639.210938 2782.519531 1697.640625 2778.128906 1753.949219 2782.519531 C 1855.078125 2790.390625 1877.101562 2939.019531 1765.238281 2939.019531 Z M 1697.949219 2078.25 L 280.8125 2078.25 C 320.71875 2965.628906 1034.371094 3679.28125 1921.75 3719.191406 L 1921.75 2302.050781 C 1812.191406 2273.101562 1726.898438 2187.808594 1697.949219 2078.25 Z M 1697.949219 2078.25 "/>
</clipPath>
<clipPath id="clip-8">
<path clip-rule="nonzero" d="M 1765.238281 2939.019531 L 1176.789062 2939.019531 C 1132.488281 2994.519531 996.765625 3227.941406 912.710938 3110.699219 C 854.234375 3029.128906 1014.5 2891.300781 1060.980469 2833.378906 C 1060.980469 2723.308594 1060.980469 2613.230469 1060.980469 2503.148438 C 1060.980469 2435.78125 1060.980469 2368.398438 1060.980469 2301.03125 C 1060.980469 2256.96875 1052.371094 2203.851562 1091.890625 2173.359375 C 1243.640625 2056.28125 1217.480469 2384.011719 1217.480469 2439.539062 C 1217.480469 2553.871094 1217.480469 2668.191406 1217.480469 2782.519531 C 1339.238281 2782.519531 1461 2782.519531 1582.761719 2782.519531 C 1639.210938 2782.519531 1697.640625 2778.128906 1753.949219 2782.519531 C 1855.078125 2790.390625 1877.101562 2939.019531 1765.238281 2939.019531 Z M 1697.949219 2078.25 L 280.8125 2078.25 C 320.71875 2965.628906 1034.371094 3679.28125 1921.75 3719.191406 L 1921.75 2302.050781 C 1812.191406 2273.101562 1726.898438 2187.808594 1697.949219 2078.25 "/>
</clipPath>
<linearGradient id="linear-pattern-2" gradientUnits="userSpaceOnUse" x1="0.0227203" y1="0" x2="0.488388" y2="0" gradientTransform="matrix(3521.33, -3573.49, 3573.49, 3521.33, 206.885, 3806.37)">
<stop offset="0" stop-color="rgb(0%, 60.560608%, 85.658264%)" stop-opacity="1"/>
<stop offset="0.015625" stop-color="rgb(0%, 60.650635%, 85.559082%)" stop-opacity="1"/>
<stop offset="0.03125" stop-color="rgb(0%, 60.830688%, 85.362244%)" stop-opacity="1"/>
<stop offset="0.046875" stop-color="rgb(0%, 61.009216%, 85.165405%)" stop-opacity="1"/>
<stop offset="0.0625" stop-color="rgb(0%, 61.18927%, 84.968567%)" stop-opacity="1"/>
<stop offset="0.078125" stop-color="rgb(0%, 61.369324%, 84.771729%)" stop-opacity="1"/>
<stop offset="0.09375" stop-color="rgb(0%, 61.549377%, 84.57489%)" stop-opacity="1"/>
<stop offset="0.109375" stop-color="rgb(0%, 61.729431%, 84.378052%)" stop-opacity="1"/>
<stop offset="0.125" stop-color="rgb(0%, 61.907959%, 84.181213%)" stop-opacity="1"/>
<stop offset="0.140625" stop-color="rgb(0%, 62.088013%, 83.984375%)" stop-opacity="1"/>
<stop offset="0.15625" stop-color="rgb(0%, 62.268066%, 83.787537%)" stop-opacity="1"/>
<stop offset="0.171875" stop-color="rgb(0%, 62.44812%, 83.590698%)" stop-opacity="1"/>
<stop offset="0.1875" stop-color="rgb(0%, 62.628174%, 83.39386%)" stop-opacity="1"/>
<stop offset="0.203125" stop-color="rgb(0%, 62.806702%, 83.197021%)" stop-opacity="1"/>
<stop offset="0.21875" stop-color="rgb(0%, 62.986755%, 83.000183%)" stop-opacity="1"/>
<stop offset="0.234375" stop-color="rgb(0%, 63.166809%, 82.803345%)" stop-opacity="1"/>
<stop offset="0.25" stop-color="rgb(0%, 63.346863%, 82.606506%)" stop-opacity="1"/>
<stop offset="0.265625" stop-color="rgb(0%, 63.526917%, 82.409668%)" stop-opacity="1"/>
<stop offset="0.28125" stop-color="rgb(0%, 63.70697%, 82.21283%)" stop-opacity="1"/>
<stop offset="0.296875" stop-color="rgb(0%, 63.885498%, 82.015991%)" stop-opacity="1"/>
<stop offset="0.3125" stop-color="rgb(0%, 64.065552%, 81.819153%)" stop-opacity="1"/>
<stop offset="0.328125" stop-color="rgb(0%, 64.245605%, 81.622314%)" stop-opacity="1"/>
<stop offset="0.34375" stop-color="rgb(0%, 64.425659%, 81.425476%)" stop-opacity="1"/>
<stop offset="0.359375" stop-color="rgb(0%, 64.605713%, 81.228638%)" stop-opacity="1"/>
<stop offset="0.375" stop-color="rgb(0%, 64.784241%, 81.031799%)" stop-opacity="1"/>
<stop offset="0.390625" stop-color="rgb(0%, 64.964294%, 80.834961%)" stop-opacity="1"/>
<stop offset="0.40625" stop-color="rgb(0%, 65.144348%, 80.638123%)" stop-opacity="1"/>
<stop offset="0.421875" stop-color="rgb(0%, 65.324402%, 80.441284%)" stop-opacity="1"/>
<stop offset="0.4375" stop-color="rgb(0%, 65.504456%, 80.244446%)" stop-opacity="1"/>
<stop offset="0.453125" stop-color="rgb(0%, 65.682983%, 80.047607%)" stop-opacity="1"/>
<stop offset="0.46875" stop-color="rgb(0%, 65.863037%, 79.850769%)" stop-opacity="1"/>
<stop offset="0.484375" stop-color="rgb(0%, 66.043091%, 79.653931%)" stop-opacity="1"/>
<stop offset="0.5" stop-color="rgb(0%, 66.223145%, 79.457092%)" stop-opacity="1"/>
<stop offset="0.515625" stop-color="rgb(0%, 66.403198%, 79.260254%)" stop-opacity="1"/>
<stop offset="0.53125" stop-color="rgb(0%, 66.581726%, 79.063416%)" stop-opacity="1"/>
<stop offset="0.546875" stop-color="rgb(0%, 66.76178%, 78.865051%)" stop-opacity="1"/>
<stop offset="0.5625" stop-color="rgb(0%, 66.941833%, 78.668213%)" stop-opacity="1"/>
<stop offset="0.578125" stop-color="rgb(0%, 67.121887%, 78.471375%)" stop-opacity="1"/>
<stop offset="0.59375" stop-color="rgb(0%, 67.301941%, 78.274536%)" stop-opacity="1"/>
<stop offset="0.609375" stop-color="rgb(0%, 67.481995%, 78.077698%)" stop-opacity="1"/>
<stop offset="0.625" stop-color="rgb(0%, 67.660522%, 77.880859%)" stop-opacity="1"/>
<stop offset="0.640625" stop-color="rgb(0%, 67.840576%, 77.684021%)" stop-opacity="1"/>
<stop offset="0.65625" stop-color="rgb(0%, 68.02063%, 77.487183%)" stop-opacity="1"/>
<stop offset="0.671875" stop-color="rgb(0%, 68.200684%, 77.290344%)" stop-opacity="1"/>
<stop offset="0.6875" stop-color="rgb(0%, 68.380737%, 77.093506%)" stop-opacity="1"/>
<stop offset="0.703125" stop-color="rgb(0%, 68.559265%, 76.896667%)" stop-opacity="1"/>
<stop offset="0.71875" stop-color="rgb(0%, 68.739319%, 76.699829%)" stop-opacity="1"/>
<stop offset="0.734375" stop-color="rgb(0%, 68.919373%, 76.502991%)" stop-opacity="1"/>
<stop offset="0.75" stop-color="rgb(0%, 69.099426%, 76.306152%)" stop-opacity="1"/>
<stop offset="0.765625" stop-color="rgb(0%, 69.27948%, 76.109314%)" stop-opacity="1"/>
<stop offset="0.78125" stop-color="rgb(0%, 69.458008%, 75.912476%)" stop-opacity="1"/>
<stop offset="0.796875" stop-color="rgb(0%, 69.638062%, 75.715637%)" stop-opacity="1"/>
<stop offset="0.8125" stop-color="rgb(0%, 69.818115%, 75.518799%)" stop-opacity="1"/>
<stop offset="0.828125" stop-color="rgb(0%, 69.998169%, 75.32196%)" stop-opacity="1"/>
<stop offset="0.84375" stop-color="rgb(0%, 70.178223%, 75.125122%)" stop-opacity="1"/>
<stop offset="0.859375" stop-color="rgb(0%, 70.35675%, 74.928284%)" stop-opacity="1"/>
<stop offset="0.875" stop-color="rgb(0%, 70.536804%, 74.731445%)" stop-opacity="1"/>
<stop offset="0.890625" stop-color="rgb(0%, 70.716858%, 74.534607%)" stop-opacity="1"/>
<stop offset="0.90625" stop-color="rgb(0%, 70.896912%, 74.337769%)" stop-opacity="1"/>
<stop offset="0.921875" stop-color="rgb(0%, 71.076965%, 74.14093%)" stop-opacity="1"/>
<stop offset="0.9375" stop-color="rgb(0%, 71.255493%, 73.944092%)" stop-opacity="1"/>
<stop offset="0.953125" stop-color="rgb(0%, 71.435547%, 73.747253%)" stop-opacity="1"/>
<stop offset="0.96875" stop-color="rgb(0%, 71.615601%, 73.550415%)" stop-opacity="1"/>
<stop offset="0.984375" stop-color="rgb(0%, 71.795654%, 73.353577%)" stop-opacity="1"/>
<stop offset="1" stop-color="rgb(0%, 71.975708%, 73.156738%)" stop-opacity="1"/>
</linearGradient>
<clipPath id="clip-9">
<path clip-rule="nonzero" d="M 280 280 L 1922 280 L 1922 1922 L 280 1922 Z M 280 280 "/>
</clipPath>
<clipPath id="clip-10">
<path clip-rule="nonzero" d="M 1765.238281 1217.480469 L 1217.480469 1217.480469 C 1217.480469 1331.808594 1217.480469 1446.128906 1217.480469 1560.460938 C 1217.480469 1620.601562 1249.679688 1920.441406 1099.820312 1832.769531 C 1053.699219 1805.789062 1060.980469 1752.890625 1060.980469 1707.960938 C 1060.980469 1641.851562 1060.980469 1575.738281 1060.980469 1509.628906 C 1060.980469 1398.691406 1060.980469 1287.738281 1060.980469 1176.789062 C 1003.710938 1131.078125 787.574219 1009.738281 881.632812 919.941406 C 960.464844 844.671875 1108.261719 1014.140625 1166.621094 1060.980469 C 1296.910156 1060.980469 1427.199219 1060.980469 1557.5 1060.980469 C 1620.640625 1060.980469 1684.25 1058.699219 1747.351562 1060.980469 C 1774.300781 1061.949219 1799.320312 1062.769531 1820.511719 1083.96875 C 1868.28125 1131.738281 1833.210938 1217.480469 1765.238281 1217.480469 Z M 280.8125 1921.75 L 1697.949219 1921.75 C 1726.898438 1812.191406 1812.191406 1726.898438 1921.75 1697.949219 L 1921.75 280.808594 C 1034.371094 320.71875 320.71875 1034.371094 280.8125 1921.75 Z M 280.8125 1921.75 "/>
</clipPath>
<clipPath id="clip-11">
<path clip-rule="nonzero" d="M 1765.238281 1217.480469 L 1217.480469 1217.480469 C 1217.480469 1331.808594 1217.480469 1446.128906 1217.480469 1560.460938 C 1217.480469 1620.601562 1249.679688 1920.441406 1099.820312 1832.769531 C 1053.699219 1805.789062 1060.980469 1752.890625 1060.980469 1707.960938 C 1060.980469 1641.851562 1060.980469 1575.738281 1060.980469 1509.628906 C 1060.980469 1398.691406 1060.980469 1287.738281 1060.980469 1176.789062 C 1003.710938 1131.078125 787.574219 1009.738281 881.632812 919.941406 C 960.464844 844.671875 1108.261719 1014.140625 1166.621094 1060.980469 C 1296.910156 1060.980469 1427.199219 1060.980469 1557.5 1060.980469 C 1620.640625 1060.980469 1684.25 1058.699219 1747.351562 1060.980469 C 1774.300781 1061.949219 1799.320312 1062.769531 1820.511719 1083.96875 C 1868.28125 1131.738281 1833.210938 1217.480469 1765.238281 1217.480469 Z M 280.8125 1921.75 L 1697.949219 1921.75 C 1726.898438 1812.191406 1812.191406 1726.898438 1921.75 1697.949219 L 1921.75 280.808594 C 1034.371094 320.71875 320.71875 1034.371094 280.8125 1921.75 "/>
</clipPath>
<linearGradient id="linear-pattern-3" gradientUnits="userSpaceOnUse" x1="0.277914" y1="0" x2="0.740463" y2="0" gradientTransform="matrix(3521.33, -3573.49, 3573.49, 3521.33, -494.53, 3115.19)">
<stop offset="0" stop-color="rgb(0%, 66.86554%, 78.753662%)" stop-opacity="1"/>
<stop offset="0.03125" stop-color="rgb(0%, 67.044067%, 78.55835%)" stop-opacity="1"/>
<stop offset="0.046875" stop-color="rgb(0%, 67.311096%, 78.265381%)" stop-opacity="1"/>
<stop offset="0.0625" stop-color="rgb(0%, 67.489624%, 78.068542%)" stop-opacity="1"/>
<stop offset="0.09375" stop-color="rgb(0%, 67.758179%, 77.775574%)" stop-opacity="1"/>
<stop offset="0.125" stop-color="rgb(0%, 68.115234%, 77.384949%)" stop-opacity="1"/>
<stop offset="0.140625" stop-color="rgb(0%, 68.382263%, 77.09198%)" stop-opacity="1"/>
<stop offset="0.15625" stop-color="rgb(0%, 68.560791%, 76.895142%)" stop-opacity="1"/>
<stop offset="0.1875" stop-color="rgb(0%, 68.829346%, 76.602173%)" stop-opacity="1"/>
<stop offset="0.21875" stop-color="rgb(0%, 69.186401%, 76.211548%)" stop-opacity="1"/>
<stop offset="0.234375" stop-color="rgb(0%, 69.45343%, 75.918579%)" stop-opacity="1"/>
<stop offset="0.25" stop-color="rgb(0%, 69.631958%, 75.721741%)" stop-opacity="1"/>
<stop offset="0.28125" stop-color="rgb(0%, 69.900513%, 75.428772%)" stop-opacity="1"/>
<stop offset="0.3125" stop-color="rgb(0%, 70.257568%, 75.038147%)" stop-opacity="1"/>
<stop offset="0.328125" stop-color="rgb(0%, 70.524597%, 74.745178%)" stop-opacity="1"/>
<stop offset="0.34375" stop-color="rgb(0%, 70.703125%, 74.54834%)" stop-opacity="1"/>
<stop offset="0.375" stop-color="rgb(0%, 70.97168%, 74.255371%)" stop-opacity="1"/>
<stop offset="0.40625" stop-color="rgb(0%, 71.328735%, 73.864746%)" stop-opacity="1"/>
<stop offset="0.421875" stop-color="rgb(0%, 71.595764%, 73.571777%)" stop-opacity="1"/>
<stop offset="0.4375" stop-color="rgb(0%, 71.774292%, 73.374939%)" stop-opacity="1"/>
<stop offset="0.46875" stop-color="rgb(0%, 72.042847%, 73.08197%)" stop-opacity="1"/>
<stop offset="0.5" stop-color="rgb(0%, 72.399902%, 72.691345%)" stop-opacity="1"/>
<stop offset="0.515625" stop-color="rgb(0%, 72.668457%, 72.398376%)" stop-opacity="1"/>
<stop offset="0.53125" stop-color="rgb(0%, 72.846985%, 72.201538%)" stop-opacity="1"/>
<stop offset="0.5625" stop-color="rgb(0%, 73.11554%, 71.908569%)" stop-opacity="1"/>
<stop offset="0.59375" stop-color="rgb(0%, 73.472595%, 71.517944%)" stop-opacity="1"/>
<stop offset="0.609375" stop-color="rgb(0%, 73.739624%, 71.224976%)" stop-opacity="1"/>
<stop offset="0.625" stop-color="rgb(0%, 73.918152%, 71.028137%)" stop-opacity="1"/>
<stop offset="0.65625" stop-color="rgb(0%, 74.186707%, 70.735168%)" stop-opacity="1"/>
<stop offset="0.6875" stop-color="rgb(0%, 74.543762%, 70.344543%)" stop-opacity="1"/>
<stop offset="0.703125" stop-color="rgb(0%, 74.810791%, 70.051575%)" stop-opacity="1"/>
<stop offset="0.71875" stop-color="rgb(0%, 74.989319%, 69.854736%)" stop-opacity="1"/>
<stop offset="0.75" stop-color="rgb(0%, 75.257874%, 69.561768%)" stop-opacity="1"/>
<stop offset="0.78125" stop-color="rgb(0%, 75.614929%, 69.171143%)" stop-opacity="1"/>
<stop offset="0.8125" stop-color="rgb(0%, 75.971985%, 68.780518%)" stop-opacity="1"/>
<stop offset="0.828125" stop-color="rgb(0%, 76.239014%, 68.486023%)" stop-opacity="1"/>
<stop offset="0.84375" stop-color="rgb(0%, 76.417542%, 68.29071%)" stop-opacity="1"/>
<stop offset="0.875" stop-color="rgb(0%, 76.686096%, 67.997742%)" stop-opacity="1"/>
<stop offset="0.90625" stop-color="rgb(0%, 77.043152%, 67.607117%)" stop-opacity="1"/>
<stop offset="0.921875" stop-color="rgb(0%, 77.310181%, 67.312622%)" stop-opacity="1"/>
<stop offset="0.9375" stop-color="rgb(0%, 77.488708%, 67.11731%)" stop-opacity="1"/>
<stop offset="0.96875" stop-color="rgb(0%, 77.757263%, 66.824341%)" stop-opacity="1"/>
<stop offset="1" stop-color="rgb(0%, 78.114319%, 66.433716%)" stop-opacity="1"/>
</linearGradient>
<clipPath id="clip-12">
<path clip-rule="nonzero" d="M 1843 1848 L 2157 1848 L 2157 2152 L 1843 2152 Z M 1843 1848 "/>
</clipPath>
<clipPath id="clip-13">
<path clip-rule="nonzero" d="M 2156.5 2000 C 2156.5 2201.410156 1843.5 2201.691406 1843.5 2000 C 1843.5 1798.460938 2156.5 1798.269531 2156.5 2000 Z M 2156.5 2000 "/>
</clipPath>
<clipPath id="clip-14">
<path clip-rule="nonzero" d="M 2156.5 2000 C 2156.5 2201.410156 1843.5 2201.691406 1843.5 2000 C 1843.5 1798.460938 2156.5 1798.269531 2156.5 2000 "/>
</clipPath>
<linearGradient id="linear-pattern-4" gradientUnits="userSpaceOnUse" x1="0.456795" y1="0" x2="0.557861" y2="0" gradientTransform="matrix(3521.33, -3573.49, 3573.49, 3521.33, 213.527, 3812.91)">
<stop offset="0" stop-color="rgb(0%, 71.284485%, 73.913574%)" stop-opacity="1"/>
<stop offset="0.125" stop-color="rgb(0%, 71.440125%, 73.742676%)" stop-opacity="1"/>
<stop offset="0.25" stop-color="rgb(0%, 71.75293%, 73.400879%)" stop-opacity="1"/>
<stop offset="0.375" stop-color="rgb(0%, 72.064209%, 73.059082%)" stop-opacity="1"/>
<stop offset="0.5" stop-color="rgb(0%, 72.377014%, 72.717285%)" stop-opacity="1"/>
<stop offset="0.625" stop-color="rgb(0%, 72.688293%, 72.375488%)" stop-opacity="1"/>
<stop offset="0.75" stop-color="rgb(0%, 73.001099%, 72.033691%)" stop-opacity="1"/>
<stop offset="0.875" stop-color="rgb(0%, 73.312378%, 71.691895%)" stop-opacity="1"/>
<stop offset="1" stop-color="rgb(0%, 73.625183%, 71.350098%)" stop-opacity="1"/>
</linearGradient>
</defs>

<g clip-path="url(#clip-0)">
<g clip-path="url(#clip-1)">
<g clip-path="url(#clip-2)">
<path fill-rule="nonzero" fill="url(#linear-pattern-0)" d="M 1235.898438 2910.785156 L 2899.960938 4550.554688 L 4539.570312 2886.65625 L 2875.511719 1246.886719 Z M 1235.898438 2910.785156 "/>
</g>
</g>
</g>
<g clip-path="url(#clip-3)">
<g clip-path="url(#clip-4)">
<g clip-path="url(#clip-5)">
<path fill-rule="nonzero" fill="url(#linear-pattern-1)" d="M 1236 1113.34375 L 2900.007812 2753.066406 L 4539.570312 1089.214844 L 2875.5625 -550.503906 Z M 1236 1113.34375 "/>
</g>
</g>
</g>
<g clip-path="url(#clip-6)">
<g clip-path="url(#clip-7)">
<g clip-path="url(#clip-8)">
<path fill-rule="nonzero" fill="url(#linear-pattern-2)" d="M -550.550781 2899.960938 L 1113.34375 4539.570312 L 2753.113281 2875.511719 L 1089.21875 1235.898438 Z M -550.550781 2899.960938 "/>
</g>
</g>
</g>
<g clip-path="url(#clip-9)">
<g clip-path="url(#clip-10)">
<g clip-path="url(#clip-11)">
<path fill-rule="nonzero" fill="url(#linear-pattern-3)" d="M -539.566406 1113.34375 L 1113.34375 2742.128906 L 2742.132812 1089.214844 L 1089.21875 -539.570312 Z M -539.566406 1113.34375 "/>
</g>
</g>
</g>
<g clip-path="url(#clip-12)">
<g clip-path="url(#clip-13)">
<g clip-path="url(#clip-14)">
<path fill-rule="nonzero" fill="url(#linear-pattern-4)" d="M 1641.8125 2002.945312 L 2002.300781 2358.171875 L 2358.1875 1997.015625 L 1997.699219 1641.785156 Z M 1641.8125 2002.945312 "/>
</g>
</g>
</g>
</svg>
